# MagicaVoxel @ Ephtracy

# group
o 

# material
mtllib Grama uno.mtl
usemtl palette

# normals
vn -1 0 0
vn 1 0 0
vn 0 0 1
vn 0 0 -1
vn 0 -1 0
vn 0 1 0

# texcoords
vt 0.466797 0.5
vt 0.630859 0.5

# verts
v 4.3 2 -3.5
v 4.3 2 -6.4
v 4.3 2.2 -3.5
v 4.3 2.2 -6.4
v 4.3 2.4 -4.6
v 4.3 2.4 -4.7
v 4.3 2.5 -4.6
v 4.3 2.5 -4.7
v 4.3 2.9 -5.8
v 4.3 2.9 -6
v 4.3 3 -4.7
v 4.3 3 -4.8
v 4.3 3 -5.8
v 4.3 3 -6
v 4.3 3.1 -4
v 4.3 3.1 -4.1
v 4.3 3.1 -4.7
v 4.3 3.1 -4.8
v 4.3 3.2 -4
v 4.3 3.2 -4.1
v 4.3 3.2 -5.5
v 4.3 3.2 -5.6
v 4.3 3.3 -5.5
v 4.3 3.3 -5.6
v 4.3 3.5 -4.6
v 4.3 3.5 -4.7
v 4.3 3.6 -4.6
v 4.3 3.6 -4.7
v 4.3 3.9 -3.5
v 4.3 3.9 -6.4
v 4.9 2 -2.6
v 4.9 2 -3.5
v 4.9 2.2 -2.6
v 4.9 2.2 -3.5
v 4.9 2.7 -2.9
v 4.9 2.7 -3
v 4.9 2.8 -2.9
v 4.9 2.8 -3
v 4.9 3.1 -2.6
v 4.9 3.1 -3.5
v 7.6 2 -6.4
v 7.6 2 -6.8
v 7.6 2.2 -6.4
v 7.6 2.2 -6.8
v 7.6 3 -6.4
v 7.6 3 -6.8
v 7.5 2 -2.6
v 7.5 2 -3.5
v 7.5 2.2 -2.6
v 7.5 2.2 -3.5
v 7.5 2.8 -3
v 7.5 2.8 -3.1
v 7.5 2.9 -3
v 7.5 2.9 -3.1
v 7.5 3.1 -2.6
v 7.5 3.1 -3.5
v 8.3 2 -3.5
v 8.3 2 -5.6
v 8.3 2.2 -3.5
v 8.3 2.2 -5.6
v 8.3 2.4 -4.1
v 8.3 2.4 -4.2
v 8.3 2.5 -4.1
v 8.3 2.5 -4.2
v 8.3 3 -5.6
v 8.3 3 -6.4
v 8.3 3.1 -5
v 8.3 3.1 -5.1
v 8.3 3.2 -5
v 8.3 3.2 -5.1
v 8.3 3.3 -4.1
v 8.3 3.3 -4.3
v 8.3 3.5 -4.1
v 8.3 3.5 -4.3
v 8.3 3.7 -6.1
v 8.3 3.7 -6.2
v 8.3 3.8 -6.1
v 8.3 3.8 -6.2
v 8.3 3.8 -6.3
v 8.3 3.8 -6.4
v 8.3 3.9 -3.5
v 8.3 3.9 -6.3
v 8.3 3.9 -6.4
v 8.9 2 -5.6
v 8.9 2 -6.8
v 8.9 2.2 -5.6
v 8.9 2.2 -6.8
v 8.9 2.7 -6.1
v 8.9 2.7 -6.2
v 8.9 2.8 -6.1
v 8.9 2.8 -6.2
v 8.9 3 -5.6
v 8.9 3 -6.8
v 4.9 2 -2.6
v 4.9 2.2 -2.6
v 4.9 3.1 -2.6
v 5.4 2.6 -2.6
v 5.4 2.7 -2.6
v 5.5 2.6 -2.6
v 5.5 2.7 -2.6
v 6.6 2.9 -2.6
v 6.6 3 -2.6
v 6.7 2.9 -2.6
v 6.7 3 -2.6
v 7.5 2 -2.6
v 7.5 2.2 -2.6
v 7.5 3.1 -2.6
v 4.3 2 -3.5
v 4.3 2.2 -3.5
v 4.3 3.9 -3.5
v 4.6 3.4 -3.5
v 4.6 3.6 -3.5
v 4.7 3.4 -3.5
v 4.7 3.6 -3.5
v 4.9 2 -3.5
v 4.9 2.2 -3.5
v 4.9 3.1 -3.5
v 6.2 3.4 -3.5
v 6.2 3.5 -3.5
v 6.3 3.4 -3.5
v 6.3 3.5 -3.5
v 7.5 2 -3.5
v 7.5 2.2 -3.5
v 7.5 3.1 -3.5
v 7.6 3.5 -3.5
v 7.6 3.7 -3.5
v 7.8 3.5 -3.5
v 7.8 3.7 -3.5
v 8 2.8 -3.5
v 8 2.9 -3.5
v 8.1 2.8 -3.5
v 8.1 2.9 -3.5
v 8.3 2 -3.5
v 8.3 2.2 -3.5
v 8.3 3.9 -3.5
v 8.3 2 -5.6
v 8.3 2.2 -5.6
v 8.3 3 -5.6
v 8.9 2 -5.6
v 8.9 2.2 -5.6
v 8.9 3 -5.6
v 4.3 2 -6.4
v 4.3 2.2 -6.4
v 4.3 3.9 -6.4
v 4.4 2.8 -6.4
v 4.4 2.9 -6.4
v 4.5 2.8 -6.4
v 4.5 2.9 -6.4
v 5.6 2.8 -6.4
v 5.6 2.9 -6.4
v 5.7 2.8 -6.4
v 5.7 2.9 -6.4
v 6.2 3.4 -6.4
v 6.2 3.5 -6.4
v 6.3 3.4 -6.4
v 6.3 3.5 -6.4
v 6.8 2.9 -6.4
v 6.8 3.1 -6.4
v 7 2.9 -6.4
v 7 3.1 -6.4
v 7.6 2 -6.4
v 7.6 2.2 -6.4
v 7.6 3 -6.4
v 8.2 3.8 -6.4
v 8.2 3.9 -6.4
v 8.3 3 -6.4
v 8.3 3.8 -6.4
v 8.3 3.9 -6.4
v 7.6 2 -6.8
v 7.6 2.2 -6.8
v 7.6 3 -6.8
v 8 2.6 -6.8
v 8 2.8 -6.8
v 8.2 2.6 -6.8
v 8.2 2.8 -6.8
v 8.6 2.7 -6.8
v 8.6 2.8 -6.8
v 8.7 2.7 -6.8
v 8.7 2.8 -6.8
v 8.9 2 -6.8
v 8.9 2.2 -6.8
v 8.9 3 -6.8
v 4.9 2 -2.6
v 7.5 2 -2.6
v 4.3 2 -3.5
v 4.9 2 -3.5
v 7.5 2 -3.5
v 8.3 2 -3.5
v 8.3 2 -5.6
v 8.9 2 -5.6
v 4.3 2 -6.4
v 7.6 2 -6.4
v 7.6 2 -6.8
v 8.9 2 -6.8
v 8.3 3 -5.6
v 8.9 3 -5.6
v 8.4 3 -6.2
v 8.5 3 -6.2
v 8.4 3 -6.3
v 8.5 3 -6.3
v 7.6 3 -6.4
v 8.3 3 -6.4
v 7.6 3 -6.8
v 8.9 3 -6.8
v 4.9 3.1 -2.6
v 7.5 3.1 -2.6
v 5.9 3.1 -2.9
v 6 3.1 -2.9
v 5.9 3.1 -3
v 6 3.1 -3
v 4.9 3.1 -3.5
v 7.5 3.1 -3.5
v 4.3 3.9 -3.5
v 8.3 3.9 -3.5
v 6.4 3.9 -4
v 6.5 3.9 -4
v 6.4 3.9 -4.1
v 6.5 3.9 -4.1
v 5.3 3.9 -4.2
v 5.4 3.9 -4.2
v 7.7 3.9 -4.2
v 7.9 3.9 -4.2
v 5.3 3.9 -4.3
v 5.4 3.9 -4.3
v 7.7 3.9 -4.4
v 7.9 3.9 -4.4
v 4.8 3.9 -5.1
v 4.9 3.9 -5.1
v 6.4 3.9 -5.1
v 6.6 3.9 -5.1
v 4.8 3.9 -5.2
v 4.9 3.9 -5.2
v 6.4 3.9 -5.3
v 6.6 3.9 -5.3
v 8.1 3.9 -5.8
v 8.2 3.9 -5.8
v 6.9 3.9 -5.9
v 7 3.9 -5.9
v 8.1 3.9 -5.9
v 8.2 3.9 -5.9
v 4.7 3.9 -6
v 4.8 3.9 -6
v 6.9 3.9 -6
v 7 3.9 -6
v 4.7 3.9 -6.1
v 4.8 3.9 -6.1
v 8.2 3.9 -6.3
v 8.3 3.9 -6.3
v 4.3 3.9 -6.4
v 8.2 3.9 -6.4
v 8.3 3.9 -6.4

# faces
f 3/2/1 2/2/1 1/2/1
f 4/2/1 2/2/1 3/2/1
f 5/1/1 4/1/1 3/1/1
f 6/1/1 4/1/1 5/1/1
f 7/1/1 5/1/1 3/1/1
f 7/2/1 6/2/1 5/2/1
f 8/1/1 4/1/1 6/1/1
f 8/2/1 6/2/1 7/2/1
f 9/1/1 8/1/1 7/1/1
f 9/1/1 4/1/1 8/1/1
f 10/1/1 4/1/1 9/1/1
f 11/1/1 9/1/1 7/1/1
f 12/1/1 9/1/1 11/1/1
f 13/2/1 10/2/1 9/2/1
f 13/1/1 9/1/1 12/1/1
f 14/1/1 4/1/1 10/1/1
f 14/2/1 10/2/1 13/2/1
f 15/1/1 7/1/1 3/1/1
f 15/1/1 11/1/1 7/1/1
f 16/1/1 11/1/1 15/1/1
f 17/2/1 12/2/1 11/2/1
f 17/1/1 11/1/1 16/1/1
f 18/1/1 13/1/1 12/1/1
f 18/2/1 12/2/1 17/2/1
f 18/1/1 14/1/1 13/1/1
f 19/2/1 16/2/1 15/2/1
f 19/1/1 15/1/1 3/1/1
f 20/1/1 17/1/1 16/1/1
f 20/2/1 16/2/1 19/2/1
f 20/1/1 18/1/1 17/1/1
f 21/1/1 14/1/1 18/1/1
f 21/1/1 18/1/1 20/1/1
f 22/1/1 14/1/1 21/1/1
f 23/1/1 20/1/1 19/1/1
f 23/1/1 21/1/1 20/1/1
f 23/2/1 22/2/1 21/2/1
f 24/1/1 14/1/1 22/1/1
f 24/2/1 22/2/1 23/2/1
f 25/1/1 23/1/1 19/1/1
f 25/1/1 24/1/1 23/1/1
f 26/1/1 24/1/1 25/1/1
f 27/1/1 25/1/1 19/1/1
f 27/2/1 26/2/1 25/2/1
f 28/1/1 24/1/1 26/1/1
f 28/2/1 26/2/1 27/2/1
f 29/1/1 19/1/1 3/1/1
f 29/1/1 27/1/1 19/1/1
f 29/1/1 28/1/1 27/1/1
f 30/1/1 4/1/1 14/1/1
f 30/1/1 28/1/1 29/1/1
f 30/1/1 24/1/1 28/1/1
f 30/1/1 14/1/1 24/1/1
f 33/2/1 32/2/1 31/2/1
f 34/2/1 32/2/1 33/2/1
f 35/1/1 34/1/1 33/1/1
f 36/1/1 34/1/1 35/1/1
f 37/1/1 35/1/1 33/1/1
f 37/2/1 36/2/1 35/2/1
f 38/1/1 34/1/1 36/1/1
f 38/2/1 36/2/1 37/2/1
f 39/1/1 37/1/1 33/1/1
f 39/1/1 38/1/1 37/1/1
f 40/1/1 34/1/1 38/1/1
f 40/1/1 38/1/1 39/1/1
f 43/2/1 42/2/1 41/2/1
f 44/2/1 42/2/1 43/2/1
f 45/1/1 44/1/1 43/1/1
f 46/1/1 44/1/1 45/1/1
f 47/2/2 48/2/2 49/2/2
f 49/2/2 48/2/2 50/2/2
f 49/1/2 50/1/2 51/1/2
f 51/1/2 50/1/2 52/1/2
f 49/1/2 51/1/2 53/1/2
f 51/2/2 52/2/2 53/2/2
f 52/1/2 50/1/2 54/1/2
f 53/2/2 52/2/2 54/2/2
f 49/1/2 53/1/2 55/1/2
f 53/1/2 54/1/2 55/1/2
f 54/1/2 50/1/2 56/1/2
f 55/1/2 54/1/2 56/1/2
f 57/2/2 58/2/2 59/2/2
f 59/2/2 58/2/2 60/2/2
f 59/1/2 60/1/2 61/1/2
f 61/1/2 60/1/2 62/1/2
f 59/1/2 61/1/2 63/1/2
f 61/2/2 62/2/2 63/2/2
f 62/1/2 60/1/2 64/1/2
f 63/2/2 62/2/2 64/2/2
f 63/1/2 64/1/2 65/1/2
f 64/1/2 60/1/2 65/1/2
f 63/1/2 65/1/2 67/1/2
f 65/1/2 66/1/2 67/1/2
f 67/1/2 66/1/2 68/1/2
f 63/1/2 67/1/2 69/1/2
f 67/2/2 68/2/2 69/2/2
f 68/1/2 66/1/2 70/1/2
f 69/2/2 68/2/2 70/2/2
f 59/1/2 63/1/2 71/1/2
f 63/1/2 69/1/2 71/1/2
f 69/1/2 70/1/2 71/1/2
f 71/1/2 70/1/2 72/1/2
f 59/1/2 71/1/2 73/1/2
f 71/2/2 72/2/2 73/2/2
f 72/1/2 70/1/2 74/1/2
f 73/2/2 72/2/2 74/2/2
f 70/1/2 66/1/2 75/1/2
f 74/1/2 70/1/2 75/1/2
f 73/1/2 74/1/2 75/1/2
f 75/1/2 66/1/2 76/1/2
f 73/1/2 75/1/2 77/1/2
f 75/2/2 76/2/2 77/2/2
f 76/1/2 66/1/2 78/1/2
f 77/2/2 76/2/2 78/2/2
f 78/1/2 66/1/2 79/1/2
f 79/1/2 66/1/2 80/1/2
f 59/1/2 73/1/2 81/1/2
f 73/1/2 77/1/2 81/1/2
f 77/1/2 78/1/2 81/1/2
f 78/1/2 79/1/2 81/1/2
f 79/2/2 80/2/2 82/2/2
f 81/1/2 79/1/2 82/1/2
f 82/2/2 80/2/2 83/2/2
f 84/2/2 85/2/2 86/2/2
f 86/2/2 85/2/2 87/2/2
f 86/1/2 87/1/2 88/1/2
f 88/1/2 87/1/2 89/1/2
f 86/1/2 88/1/2 90/1/2
f 88/2/2 89/2/2 90/2/2
f 89/1/2 87/1/2 91/1/2
f 90/2/2 89/2/2 91/2/2
f 86/1/2 90/1/2 92/1/2
f 90/1/2 91/1/2 92/1/2
f 91/1/2 87/1/2 93/1/2
f 92/1/2 91/1/2 93/1/2
f 97/1/3 96/1/3 95/1/3
f 98/1/3 96/1/3 97/1/3
f 99/1/3 97/1/3 95/1/3
f 99/2/3 98/2/3 97/2/3
f 100/1/3 96/1/3 98/1/3
f 100/2/3 98/2/3 99/2/3
f 101/1/3 100/1/3 99/1/3
f 101/1/3 96/1/3 100/1/3
f 102/1/3 96/1/3 101/1/3
f 103/1/3 101/1/3 99/1/3
f 103/2/3 102/2/3 101/2/3
f 104/1/3 96/1/3 102/1/3
f 104/2/3 102/2/3 103/2/3
f 105/2/3 95/2/3 94/2/3
f 106/1/3 99/1/3 95/1/3
f 106/2/3 95/2/3 105/2/3
f 106/1/3 103/1/3 99/1/3
f 106/1/3 104/1/3 103/1/3
f 107/1/3 96/1/3 104/1/3
f 107/1/3 104/1/3 106/1/3
f 111/1/3 110/1/3 109/1/3
f 112/1/3 110/1/3 111/1/3
f 113/1/3 111/1/3 109/1/3
f 113/2/3 112/2/3 111/2/3
f 114/1/3 110/1/3 112/1/3
f 114/2/3 112/2/3 113/2/3
f 115/2/3 109/2/3 108/2/3
f 116/1/3 113/1/3 109/1/3
f 116/2/3 109/2/3 115/2/3
f 116/1/3 114/1/3 113/1/3
f 117/1/3 114/1/3 116/1/3
f 118/1/3 114/1/3 117/1/3
f 119/1/3 114/1/3 118/1/3
f 120/1/3 118/1/3 117/1/3
f 120/2/3 119/2/3 118/2/3
f 121/1/3 114/1/3 119/1/3
f 121/2/3 119/2/3 120/2/3
f 124/1/3 120/1/3 117/1/3
f 124/1/3 121/1/3 120/1/3
f 125/1/3 114/1/3 121/1/3
f 125/1/3 124/1/3 123/1/3
f 125/1/3 121/1/3 124/1/3
f 126/1/3 110/1/3 114/1/3
f 126/1/3 114/1/3 125/1/3
f 127/1/3 125/1/3 123/1/3
f 127/2/3 126/2/3 125/2/3
f 128/1/3 110/1/3 126/1/3
f 128/2/3 126/2/3 127/2/3
f 129/1/3 127/1/3 123/1/3
f 129/1/3 128/1/3 127/1/3
f 130/1/3 128/1/3 129/1/3
f 131/1/3 129/1/3 123/1/3
f 131/2/3 130/2/3 129/2/3
f 132/1/3 128/1/3 130/1/3
f 132/2/3 130/2/3 131/2/3
f 133/2/3 123/2/3 122/2/3
f 134/1/3 131/1/3 123/1/3
f 134/2/3 123/2/3 133/2/3
f 134/1/3 132/1/3 131/1/3
f 135/1/3 110/1/3 128/1/3
f 135/1/3 132/1/3 134/1/3
f 135/1/3 128/1/3 132/1/3
f 139/2/3 137/2/3 136/2/3
f 140/1/3 138/1/3 137/1/3
f 140/2/3 137/2/3 139/2/3
f 141/1/3 138/1/3 140/1/3
f 143/1/4 144/1/4 145/1/4
f 145/1/4 144/1/4 146/1/4
f 143/1/4 145/1/4 147/1/4
f 145/2/4 146/2/4 147/2/4
f 146/1/4 144/1/4 148/1/4
f 147/2/4 146/2/4 148/2/4
f 143/1/4 147/1/4 149/1/4
f 147/1/4 148/1/4 149/1/4
f 148/1/4 144/1/4 150/1/4
f 149/1/4 148/1/4 150/1/4
f 143/1/4 149/1/4 151/1/4
f 149/2/4 150/2/4 151/2/4
f 150/1/4 144/1/4 152/1/4
f 151/2/4 150/2/4 152/2/4
f 151/1/4 152/1/4 153/1/4
f 152/1/4 144/1/4 153/1/4
f 153/1/4 144/1/4 154/1/4
f 151/1/4 153/1/4 155/1/4
f 153/2/4 154/2/4 155/2/4
f 154/1/4 144/1/4 156/1/4
f 155/2/4 154/2/4 156/2/4
f 151/1/4 155/1/4 157/1/4
f 155/1/4 156/1/4 157/1/4
f 157/1/4 156/1/4 158/1/4
f 151/1/4 157/1/4 159/1/4
f 157/2/4 158/2/4 159/2/4
f 158/1/4 156/1/4 160/1/4
f 159/2/4 158/2/4 160/2/4
f 142/2/4 143/2/4 161/2/4
f 143/1/4 151/1/4 162/1/4
f 161/2/4 143/2/4 162/2/4
f 151/1/4 159/1/4 162/1/4
f 159/1/4 160/1/4 162/1/4
f 162/1/4 160/1/4 163/1/4
f 160/1/4 156/1/4 164/1/4
f 163/1/4 160/1/4 164/1/4
f 156/1/4 144/1/4 164/1/4
f 164/1/4 144/1/4 165/1/4
f 163/1/4 164/1/4 166/1/4
f 164/2/4 165/2/4 167/2/4
f 166/1/4 164/1/4 167/1/4
f 167/2/4 165/2/4 168/2/4
f 170/1/4 171/1/4 172/1/4
f 172/1/4 171/1/4 173/1/4
f 170/1/4 172/1/4 174/1/4
f 172/2/4 173/2/4 174/2/4
f 173/1/4 171/1/4 175/1/4
f 174/2/4 173/2/4 175/2/4
f 174/1/4 175/1/4 176/1/4
f 175/1/4 171/1/4 177/1/4
f 176/1/4 175/1/4 177/1/4
f 174/1/4 176/1/4 178/1/4
f 176/2/4 177/2/4 178/2/4
f 177/1/4 171/1/4 179/1/4
f 178/2/4 177/2/4 179/2/4
f 169/2/4 170/2/4 180/2/4
f 170/1/4 174/1/4 181/1/4
f 180/2/4 170/2/4 181/2/4
f 174/1/4 178/1/4 181/1/4
f 178/1/4 179/1/4 181/1/4
f 179/1/4 171/1/4 182/1/4
f 181/1/4 179/1/4 182/1/4
f 186/2/5 184/2/5 183/2/5
f 187/2/5 184/2/5 186/2/5
f 189/2/5 186/2/5 185/2/5
f 189/2/5 188/2/5 187/2/5
f 189/2/5 187/2/5 186/2/5
f 191/2/5 189/2/5 185/2/5
f 191/2/5 190/2/5 189/2/5
f 192/2/5 190/2/5 191/2/5
f 193/2/5 190/2/5 192/2/5
f 194/2/5 190/2/5 193/2/5
f 195/1/6 196/1/6 197/1/6
f 197/1/6 196/1/6 198/1/6
f 195/1/6 197/1/6 199/1/6
f 197/2/6 198/2/6 199/2/6
f 198/1/6 196/1/6 200/1/6
f 199/2/6 198/2/6 200/2/6
f 195/1/6 199/1/6 202/1/6
f 199/1/6 200/1/6 202/1/6
f 201/1/6 202/1/6 203/1/6
f 200/1/6 196/1/6 204/1/6
f 203/1/6 202/1/6 204/1/6
f 202/1/6 200/1/6 204/1/6
f 205/1/6 206/1/6 207/1/6
f 207/1/6 206/1/6 208/1/6
f 205/1/6 207/1/6 209/1/6
f 207/2/6 208/2/6 209/2/6
f 208/1/6 206/1/6 210/1/6
f 209/2/6 208/2/6 210/2/6
f 205/1/6 209/1/6 211/1/6
f 209/1/6 210/1/6 211/1/6
f 210/1/6 206/1/6 212/1/6
f 211/1/6 210/1/6 212/1/6
f 213/1/6 214/1/6 215/1/6
f 215/1/6 214/1/6 216/1/6
f 213/1/6 215/1/6 217/1/6
f 215/2/6 216/2/6 217/2/6
f 216/1/6 214/1/6 218/1/6
f 217/2/6 216/2/6 218/2/6
f 213/1/6 217/1/6 219/1/6
f 217/1/6 218/1/6 219/1/6
f 219/1/6 218/1/6 220/1/6
f 218/1/6 214/1/6 221/1/6
f 220/1/6 218/1/6 221/1/6
f 221/1/6 214/1/6 222/1/6
f 219/2/6 220/2/6 223/2/6
f 213/1/6 219/1/6 223/1/6
f 220/1/6 221/1/6 224/1/6
f 223/2/6 220/2/6 224/2/6
f 221/2/6 222/2/6 225/2/6
f 224/1/6 221/1/6 225/1/6
f 223/1/6 224/1/6 225/1/6
f 222/1/6 214/1/6 226/1/6
f 225/2/6 222/2/6 226/2/6
f 223/1/6 225/1/6 227/1/6
f 213/1/6 223/1/6 227/1/6
f 225/1/6 226/1/6 227/1/6
f 227/1/6 226/1/6 228/1/6
f 228/1/6 226/1/6 229/1/6
f 229/1/6 226/1/6 230/1/6
f 213/1/6 227/1/6 231/1/6
f 227/2/6 228/2/6 231/2/6
f 228/1/6 229/1/6 232/1/6
f 231/2/6 228/2/6 232/2/6
f 229/2/6 230/2/6 233/2/6
f 232/1/6 229/1/6 233/1/6
f 231/1/6 232/1/6 233/1/6
f 230/1/6 226/1/6 234/1/6
f 233/2/6 230/2/6 234/2/6
f 226/1/6 214/1/6 235/1/6
f 234/1/6 226/1/6 235/1/6
f 233/1/6 234/1/6 235/1/6
f 235/1/6 214/1/6 236/1/6
f 233/1/6 235/1/6 237/1/6
f 237/1/6 235/1/6 238/1/6
f 235/2/6 236/2/6 239/2/6
f 238/1/6 235/1/6 239/1/6
f 236/1/6 214/1/6 240/1/6
f 239/2/6 236/2/6 240/2/6
f 213/1/6 231/1/6 241/1/6
f 231/1/6 233/1/6 241/1/6
f 233/1/6 237/1/6 241/1/6
f 241/1/6 237/1/6 242/1/6
f 237/2/6 238/2/6 243/2/6
f 242/1/6 237/1/6 243/1/6
f 239/1/6 240/1/6 244/1/6
f 243/2/6 238/2/6 244/2/6
f 238/1/6 239/1/6 244/1/6
f 213/1/6 241/1/6 245/1/6
f 241/2/6 242/2/6 245/2/6
f 242/1/6 243/1/6 246/1/6
f 245/2/6 242/2/6 246/2/6
f 243/1/6 244/1/6 246/1/6
f 240/1/6 214/1/6 247/1/6
f 246/1/6 244/1/6 247/1/6
f 245/1/6 246/1/6 247/1/6
f 244/1/6 240/1/6 247/1/6
f 247/1/6 214/1/6 248/1/6
f 213/1/6 245/1/6 249/1/6
f 245/1/6 247/1/6 249/1/6
f 247/2/6 248/2/6 250/2/6
f 249/1/6 247/1/6 250/1/6
f 250/2/6 248/2/6 251/2/6
